<?xml version="1.0" encoding="utf-8"?>
<!-- Generator: Adobe Illustrator 16.0.0, SVG Export Plug-In . SVG Version: 6.00 Build 0)  -->
<!DOCTYPE svg PUBLIC "-//W3C//DTD SVG 1.1//EN" "http://www.w3.org/Graphics/SVG/1.1/DTD/svg11.dtd">
<svg version="1.1"
	 id="svg3084" xmlns:dc="http://purl.org/dc/elements/1.1/" xmlns:cc="http://creativecommons.org/ns#" xmlns:rdf="http://www.w3.org/1999/02/22-rdf-syntax-ns#" xmlns:svg="http://www.w3.org/2000/svg" xmlns:sodipodi="http://sodipodi.sourceforge.net/DTD/sodipodi-0.dtd" xmlns:inkscape="http://www.inkscape.org/namespaces/inkscape" sodipodi:docname="New document 2" inkscape:version="0.48.0 r9654"
	 xmlns="http://www.w3.org/2000/svg" xmlns:xlink="http://www.w3.org/1999/xlink" x="0px" y="0px" width="300px" height="193.461px"
	 viewBox="0 0 300 193.461" enable-background="new 0 0 300 193.461" xml:space="preserve">
<sodipodi:namedview  fit-margin-left="0" fit-margin-top="0" showgrid="false" inkscape:cy="85.033759" inkscape:cx="199.25362" inkscape:zoom="1.979899" borderopacity="1.0" bordercolor="#666666" pagecolor="#ffffff" id="base" inkscape:window-maximized="1" inkscape:window-y="-8" inkscape:window-x="-8" inkscape:window-height="750" inkscape:window-width="1280" fit-margin-bottom="0" inkscape:current-layer="layer1" inkscape:pageshadow="2" inkscape:document-units="px" inkscape:pageopacity="0.0" fit-margin-right="0">
	</sodipodi:namedview>
<g id="layer1" transform="translate(-99.947769,-406.89399)" inkscape:label="Layer 1" inkscape:groupmode="layer">
	<g id="g10" transform="matrix(0.90958305,0,0,0.90958305,-21.107609,121.24592)">
		<g id="g12">
			<path id="path14" inkscape:connector-curvature="0" fill="#FFFFFF" d="M438.218,397.427l-0.003,0.002h0.004
				c-1.784,2.698-2.433,5.946-2.976,9.332c-0.668,4.123-1.37,8.081-2.828,11.961c-1.752,4.651-4.695,9.833-9.815,13.89
				c-5.323-14.411-13.069-27.642-22.741-39.215c6.102-2.439,12.091-2.401,17.015-1.589c4.089,0.677,7.869,2.047,11.775,3.531
				C431.851,396.562,434.989,397.625,438.218,397.427L438.218,397.427z"/>
			<path id="path16" inkscape:connector-curvature="0" fill="#FFFFFF" d="M378.802,338.011l-0.002,0.003l0.004-0.001
				c-0.199,3.228,0.864,6.365,2.086,9.569c1.485,3.905,2.855,7.684,3.532,11.774c0.813,4.928,0.849,10.924-1.596,17.031
				c-11.589-9.657-24.839-17.386-39.261-22.688c4.065-5.163,9.27-8.124,13.942-9.883c3.88-1.458,7.838-2.161,11.962-2.829
				C372.854,340.444,376.102,339.797,378.802,338.011L378.802,338.011z"/>
			<path id="path18" inkscape:connector-curvature="0" fill="#FFFFFF" d="M428.857,455.935c6.457,0.956,11.596,3.968,15.437,7.118
				c3.202,2.632,5.789,5.707,8.43,8.947c2.161,2.657,4.347,5.148,7.241,6.591h-29.156
				C430.799,470.868,430.127,463.301,428.857,455.935z"/>
			<path id="path20" inkscape:connector-curvature="0" fill="#FFFFFF" d="M216.471,338.013l0.002,0.002v-0.003
				c2.698,1.785,5.947,2.432,9.332,2.977c4.123,0.667,8.081,1.37,11.961,2.827c4.672,1.759,9.878,4.721,13.942,9.884
				c-14.424,5.301-27.672,13.031-39.261,22.688c-2.445-6.107-2.409-12.103-1.595-17.032c0.677-4.089,2.047-7.869,3.531-11.775
				C215.605,344.379,216.669,341.241,216.471,338.013z"/>
			<path id="path22" inkscape:connector-curvature="0" fill="#FFFFFF" d="M157.055,397.43l0.003,0.001l-0.001-0.003
				c3.228,0.197,6.366-0.866,9.569-2.088c3.905-1.484,7.684-2.854,11.773-3.532c4.925-0.811,10.914-0.848,17.015,1.59
				c-9.671,11.572-17.415,24.805-22.739,39.214c-5.121-4.056-8.063-9.237-9.815-13.889c-1.458-3.88-2.161-7.838-2.828-11.962
				C159.488,403.376,158.84,400.127,157.055,397.43L157.055,397.43z"/>
			<path id="path24" inkscape:connector-curvature="0" fill="#FFFFFF" d="M135.31,478.591c2.894-1.443,5.078-3.932,7.242-6.591
				c2.639-3.238,5.227-6.314,8.429-8.944c3.841-3.152,8.976-6.165,15.436-7.118c-1.271,7.363-1.942,14.93-1.95,22.654H135.31
				L135.31,478.591z"/>
			<path id="path26" inkscape:connector-curvature="0" fill="#FFFFFF" d="M297.636,316.264v0.003l0.002-0.003
				c1.443,2.895,3.933,5.08,6.592,7.244c3.238,2.639,6.315,5.227,8.947,8.429c3.169,3.865,6.201,9.041,7.135,15.558
				c-7.372-1.265-14.944-1.931-22.675-1.931c-7.731,0-15.305,0.666-22.676,1.931c0.934-6.516,3.966-11.693,7.136-15.557
				c2.632-3.203,5.708-5.791,8.946-8.431C293.702,321.345,296.192,319.159,297.636,316.264L297.636,316.264z"/>
		</g>
		<g id="g28">
			<path id="path30" inkscape:connector-curvature="0" fill="#FFFFFF" d="M270.555,478.621l10.02-0.03
				c1.316-8.462-1.258-14.978-9.819-13.423c-7.214,1.31-14.963,8.476-19.646,13.423l13.211-0.058
				c1.472-0.967,4.353-2.072,5.536-1.25C270.3,477.593,270.531,478.029,270.555,478.621z"/>
			<path id="path32" inkscape:connector-curvature="0" fill="#FFFFFF" d="M315.615,478.593h12.5
				c0.595-14.763-1.783-30.006-8.646-43.195c-6.242-12.001-16.561-20.158-29.918-22.129c-19.5-2.877-39.176,5.378-55.811,17.188
				c-18.112,12.859-33.062,30.324-46.127,48.135l16.513-0.024c14.866-21.071,49.059-53.061,74.212-53.27
				c8.016-0.067,16.166,1.814,22.192,7.191c4.366,3.895,9.66,11.46,9.4,17.601c-0.155,3.64-3.384,4.756-6.483,3.629
				c-2.407-0.876-4.108-3.077-5.791-5.39c-5.473-7.513-14.01-11.192-23.374-9.91c-11.168,1.527-25.012,10.2-33.941,18.086
				c-7.7,6.801-14.769,14.245-21.437,22.085h17.754c6.507-7.857,13.378-14.555,22.211-20.058c2.795-1.741,6.237-3.582,9.855-4.825
				c9.127-3.137,18.21-2.344,22.243,9.021c1.585,4.467,1.818,8.387,1.355,15.568l-0.001,0.294h12.072l0.03-0.369
				c0.01-3.934-0.076-6.584,0.279-10.481c0.305-3.359,1.349-6.84,4.468-7.254C315.803,459.1,315.485,473.852,315.615,478.593z"/>
			<path id="path34" inkscape:connector-curvature="0" fill="#FFFFFF" d="M341.259,478.593h12.604
				c0.61-13.696-0.565-29.922-4.995-44.09c-0.876-2.796-1.875-5.508-3.009-8.098c-2.683-6.123-6.293-11.665-10.598-16.787
				c-4.783-5.69-10.483-10.806-16.91-14.836c-1.896-1.189-3.861-2.287-5.892-3.279v-0.002c-2.014-0.985-4.097-1.866-6.242-2.627
				l-0.006-0.003c-24.546-8.715-49.371-2.517-70.195,8.809c-4.06,2.209-7.967,4.611-11.687,7.134
				c-3.719,2.521-7.26,5.17-10.59,7.871h-0.001l0,0l-0.006,0.006c-3.953,3.206-8.899,7.593-13.794,12.779
				c-0.964,1.02-1.916,2.06-2.842,3.111c-2.477,2.809-6.294,6.745-5.161,10.815c0.897,3.228,5.062,2.277,6.513,1.165
				c2.227-1.195,4.673-3.089,6.766-4.859c2.834-2.4,5.511-4.983,8.317-7.415c11.35-9.839,23.18-17.427,34.833-22.562
				c2.54-1.119,5.083-2.126,7.617-3.016c2.525-0.887,5.037-1.655,7.527-2.302l0.012-0.003c21.683-5.63,45.245-1.983,60.33,15.7
				C338.383,433.136,341.037,455.935,341.259,478.593z M184.871,459.339c1.354-1.265,2.734-2.914,4.172-4.739
				c2.012-2.553,2.214-5.024,1.419-6.808c-0.296-0.666-0.733-1.239-1.264-1.682c-0.527-0.44-1.149-0.754-1.82-0.908
				c-1.64-0.376-3.601,0.213-5.266,2.237c-1.883,2.291-4.484,6.208-5.014,9.673c-0.099,0.648-0.126,1.28-0.059,1.872
				c0.065,0.575,0.219,1.123,0.478,1.623l0.002,0.005l0.001-0.001c0.424,0.814,1.139,1.243,2.093,1.279
				c0.199,0.008,0.414-0.001,0.643-0.027c0.223-0.026,0.465-0.069,0.722-0.129l0.001,0.002l0.012-0.003
				C182.275,461.426,183.559,460.563,184.871,459.339z"/>
			<path id="path36" inkscape:connector-curvature="0" fill="#FFFFFF" d="M372.787,478.598l0.09-0.002h0.045
				c1.318,0.071,3.607-0.536,4.928-2.762c0.262-0.446,0.488-0.954,0.659-1.532c0.176-0.588,0.296-1.255,0.348-2.003l0,0l0.01-0.155
				l0,0c1.002-35.006-9.72-63.985-27.923-83.673c-3.535-3.823-7.358-7.301-11.435-10.406c-4.076-3.103-8.4-5.83-12.938-8.156
				l-0.001,0.001l-0.072-0.036l-0.002-0.002c-15.3-7.819-32.652-10.822-49.684-9.379c-3.323,0.281-6.625,0.73-9.888,1.343
				c-3.271,0.615-6.515,1.396-9.711,2.339l-0.045,0.014c-17.516,5.181-33.816,15.466-47.099,28.961
				c-2.587,2.629-5.059,5.376-7.397,8.227c-1.163,1.416-2.295,2.86-3.392,4.326c9.315-8.037,19.309-15.087,29.762-20.688
				c2.354-1.261,4.722-2.446,7.097-3.544c2.378-1.101,4.786-2.128,7.219-3.074l0.007-0.003l0.007-0.003
				c9.235-3.589,18.339-5.878,27.445-6.901c9.106-1.023,18.218-0.78,27.471,0.691c6.585,1.048,13.013,2.772,18.803,5.184
				c1.123,0.468,2.229,0.965,3.311,1.49c1.068,0.518,2.12,1.068,3.15,1.65h0.002l0.016,0.008l-0.002,0.001
				c20.386,11.163,34.55,34.069,40.787,59.931c1.216,5.044,2.132,10.196,2.733,15.386c0.601,5.188,0.889,10.434,0.852,15.669v0.002
				l-0.002,0.301c0.103,2.801,1.063,5.145,2.708,6.199c0.307,0.195,0.639,0.35,0.992,0.449h0.002
				C372,478.553,372.383,478.603,372.787,478.598L372.787,478.598z"/>
			<path id="path38" inkscape:connector-curvature="0" fill="#FFFFFF" d="M336.337,361.93
				c49.014,16.189,84.436,62.282,84.641,116.664h-24.251C398.332,431.089,377.599,388.209,336.337,361.93L336.337,361.93z"/>
		</g>
		<path id="path40" inkscape:connector-curvature="0" fill="#FFFFFF" d="M194.025,516.738h-9.81l-2.429,8.547h-7.819l10.345-32.733
			h9.907l10.636,32.733h-8.159L194.025,516.738z M185.332,511.201h7.527c-1.974-6.396-3.253-10.783-3.836-13.162h-0.098
			l-1.554,6.216L185.332,511.201L185.332,511.201z M230.059,516.738h-9.811l-2.428,8.547h-7.819l10.344-32.733h9.908l10.636,32.733
			h-8.159L230.059,516.738z M221.365,511.201h7.528c-1.975-6.396-3.254-10.783-3.837-13.162h-0.097l-1.554,6.216L221.365,511.201z
			 M248.365,525.14v-32.151c3.238-0.485,6.702-0.728,10.393-0.728c6.978,0,11.988,1.456,15.024,4.378
			c3.035,2.922,4.549,6.742,4.549,11.454c0,5.57-1.724,9.884-5.181,12.944c-3.456,3.059-8.79,4.589-15.994,4.589
			C253.821,525.625,250.891,525.463,248.365,525.14z M255.893,498.331v21.32c0.421,0.098,1.328,0.146,2.72,0.146
			c3.739,0,6.637-0.988,8.685-2.955c2.048-1.967,3.068-4.784,3.068-8.458c0-3.367-0.931-5.933-2.801-7.698
			c-1.87-1.765-4.565-2.648-8.078-2.648C258.014,498.039,256.816,498.138,255.893,498.331L255.893,498.331z M286.39,492.553h7.528
			v12.577h12.87v-12.577h7.528v32.732h-7.528v-13.647h-12.87v13.647h-7.528V492.553z M341.606,516.738h-9.809l-2.429,8.547h-7.82
			l10.346-32.732h9.908l10.635,32.732h-8.159L341.606,516.738z M332.914,511.201h7.528c-1.975-6.395-3.255-10.783-3.837-13.162
			h-0.097l-1.555,6.216l-2.04,6.946V511.201z M377.641,516.738h-9.811l-2.427,8.547h-7.819l10.345-32.732h9.908l10.635,32.732
			h-8.159L377.641,516.738L377.641,516.738z M368.948,511.201h7.527c-1.974-6.395-3.254-10.783-3.837-13.162h-0.097l-1.554,6.216
			l-2.04,6.946V511.201z M395.948,525.285v-32.296c2.753-0.485,6.135-0.728,10.15-0.728c4.954,0,8.515,0.817,10.685,2.452
			c2.169,1.635,3.253,3.975,3.253,7.017c0,1.814-0.541,3.449-1.634,4.913c-1.093,1.467-2.51,2.502-4.241,3.101v0.194
			c2.04,0.761,3.513,2.769,4.418,6.022c1.668,5.86,2.573,8.969,2.72,9.325h-7.672c-0.648-1.214-1.426-3.755-2.332-7.625
			c-0.453-1.942-1.068-3.301-1.845-4.079c-0.777-0.777-2.025-1.166-3.741-1.166h-2.331v12.87H395.948z M403.378,498.039v8.984h3.108
			c1.878,0,3.358-0.428,4.444-1.278c1.085-0.85,1.627-1.992,1.627-3.434c0-1.441-0.485-2.557-1.464-3.342
			c-0.979-0.785-2.373-1.173-4.168-1.173C405.159,497.797,403.977,497.878,403.378,498.039L403.378,498.039z"/>
	</g>
</g>
</svg>
